<svg xmlns="http://www.w3.org/2000/svg" viewBox="0 0 64 64" fill="none">
  <rect width="64" height="64" rx="14" fill="#050807"/>
  <path d="M32 58c.2-9 .6-17 1.2-28" stroke="#3d6b52" stroke-width="2.6" stroke-linecap="round"/>
  <path d="M33.2 30C38 24 44 18 50 13C51.5 14.8 51.2 16.5 50 17.2C52 18.5 52.2 20.2 50.8 21.2C53 22.8 53 24.8 51.2 26C48 28.5 41 32 33.2 30Z" fill="#7ed9a8"/>
  <path d="M33.2 30C28.5 24 22.5 18 16.5 13.5C15 15.3 15.3 17 16.5 17.7C14.5 19 14.3 20.7 15.7 21.7C13.5 23.3 13.5 25.3 15.3 26.5C18.5 29 26 32 33.2 30Z" fill="#3d9a6a"/>
  <circle cx="33.2" cy="30.4" r="2.1" fill="#3d6b52"/>
  <path d="M33.2 30C40 23.5 46.5 17.5 51.5 13.5" stroke="#0e2418" stroke-width="1.25" stroke-linecap="round" opacity="0.45"/>
  <path d="M33.2 30C26.5 23.5 20 18 15 14" stroke="#0e2418" stroke-width="1.15" stroke-linecap="round" opacity="0.4"/>
</svg>
