<svg xmlns="http://www.w3.org/2000/svg" viewBox="0 0 64 64" fill="none">
  <defs>
    <linearGradient id="field" x1="12" y1="6" x2="54" y2="58" gradientUnits="userSpaceOnUse">
      <stop stop-color="#163528"/>
      <stop offset="0.55" stop-color="#0c1a14"/>
      <stop offset="1" stop-color="#07110d"/>
    </linearGradient>
    <radialGradient id="wash" cx="32" cy="28" r="28" gradientUnits="userSpaceOnUse">
      <stop stop-color="#7ed9a8" stop-opacity="0.28"/>
      <stop offset="0.55" stop-color="#4db884" stop-opacity="0.1"/>
      <stop offset="1" stop-color="#07110d" stop-opacity="0"/>
    </radialGradient>
    <linearGradient id="leafR" x1="38" y1="14" x2="46" y2="32" gradientUnits="userSpaceOnUse">
      <stop stop-color="#7ed9a8"/>
      <stop offset="1" stop-color="#4db884"/>
    </linearGradient>
    <linearGradient id="leafL" x1="16" y1="14" x2="30" y2="32" gradientUnits="userSpaceOnUse">
      <stop stop-color="#4db884"/>
      <stop offset="1" stop-color="#2f8a5e"/>
    </linearGradient>
  </defs>
  <rect width="64" height="64" rx="18" fill="url(#field)"/>
  <rect width="64" height="64" rx="18" fill="url(#wash)"/>
  <rect x="0.75" y="0.75" width="62.5" height="62.5" rx="17.25" stroke="#4db884" stroke-opacity="0.22"/>
  <path d="M32 58c.2-9 .6-17 1.2-28" stroke="#3d6b52" stroke-width="2.6" stroke-linecap="round"/>
  <path d="M33.2 30C38 24 44 18 50 13C51.5 14.8 51.2 16.5 50 17.2C52 18.5 52.2 20.2 50.8 21.2C53 22.8 53 24.8 51.2 26C48 28.5 41 32 33.2 30Z" fill="url(#leafR)"/>
  <path d="M33.2 30C28.5 24 22.5 18 16.5 13.5C15 15.3 15.3 17 16.5 17.7C14.5 19 14.3 20.7 15.7 21.7C13.5 23.3 13.5 25.3 15.3 26.5C18.5 29 26 32 33.2 30Z" fill="url(#leafL)"/>
  <circle cx="33.2" cy="30.4" r="2.1" fill="#3d6b52"/>
  <path d="M33.2 30C40 23.5 46.5 17.5 51.5 13.5" stroke="#0e2418" stroke-width="1.25" stroke-linecap="round" opacity="0.45"/>
  <path d="M33.2 30C26.5 23.5 20 18 15 14" stroke="#0e2418" stroke-width="1.15" stroke-linecap="round" opacity="0.4"/>
</svg>
