<svg xmlns="http://www.w3.org/2000/svg" viewBox="0 0 64 64" fill="none">
  <rect width="64" height="64" rx="14" fill="#050807"/>
  <path d="M32 58V34" stroke="#3d6b52" stroke-width="2.4" stroke-linecap="round"/>
  <circle cx="32" cy="34" r="1.6" fill="#3d6b52"/>
  <path d="M32 34c-2.5-1-6-2-9-2.2" stroke="#3d6b52" stroke-width="1.8" stroke-linecap="round"/>
  <path d="M23 31.8C14 30 7 24 5 15c9 1.5 16 7 19.5 15.2-0.5.5-1 .9-1.5 1.6Z" fill="#3d9a6a"/>
  <path d="M32 34c2.5-1 6-2 9-2.2" stroke="#3d6b52" stroke-width="1.8" stroke-linecap="round"/>
  <path d="M41 31.8C50 30 57 24 59 15c-9 1.5-16 7-19.5 15.2 0.5.5 1 .9 1.5 1.6Z" fill="#5fbf8a"/>
  <path d="M31 33.5C24 30 16 24 10 18" stroke="#0e2418" stroke-width="1.15" stroke-linecap="round" opacity="0.45"/>
  <path d="M33 33.5C40 30 48 24 54 18" stroke="#0e2418" stroke-width="1.15" stroke-linecap="round" opacity="0.45"/>
</svg>
