<svg xmlns="http://www.w3.org/2000/svg" viewBox="0 0 64 64" fill="none">
  <rect width="64" height="64" rx="14" fill="#050807"/>
  <path d="M32 54c0-10 1.5-18 4-26" stroke="#3d6b52" stroke-width="2.2" stroke-linecap="round"/>
  <path d="M36 28c8-2 16-8 18-18-12 1-22 7-26 16 2 1 5 2 8 2Z" fill="#5fbf8a"/>
  <path d="M28 30c-8-1-16-6-20-14 11 0 20 5 24 13-1.5.5-2.8.8-4 1Z" fill="#3d9a6a"/>
  <path d="M34 30c2-6 6-12 12-16" stroke="#0e2418" stroke-width="1.4" stroke-linecap="round" opacity="0.45"/>
  <path d="M30 31c-3-5-8-9-14-12" stroke="#0e2418" stroke-width="1.3" stroke-linecap="round" opacity="0.4"/>
</svg>
